<svg height="490pt" viewBox="0 -10 490.672 490" width="490pt" xmlns="http://www.w3.org/2000/svg"><path d="m416 309.667969h-117.332031c-5.898438 0-10.667969-4.765625-10.667969-10.664063 0-5.898437 4.769531-10.667968 10.667969-10.667968h117.332031c19.914062 0 38.613281-8.03125 50.515625-21.332032-11.902344-13.300781-30.601563-21.335937-50.515625-21.335937h-320c-2.828125 0-5.546875-1.117188-7.542969-3.125l-39.539062-39.539063h-19.414063l51.199219 85.332032h89.964844c5.886719 0 10.664062 4.769531 10.664062 10.667968 0 5.898438-4.777343 10.664063-10.664062 10.664063h-96c-3.746094 0-7.222657-1.972657-9.144531-5.171875l-64-106.667969c-1.980469-3.292969-2.023438-7.402344-.136719-10.738281 1.886719-3.351563 5.441406-5.421875 9.28125-5.421875h42.664062c2.828125 0 5.546875 1.121093 7.542969 3.125l39.539062 39.542969h315.585938c29.75 0 57.664062 14.070312 72.863281 36.726562 2.410157 3.59375 2.410157 8.277344 0 11.871094-15.199219 22.667968-43.113281 36.734375-72.863281 36.734375zm0 0"/><path d="m202.667969 384.335938h-42.667969c-4.074219 0-7.785156-2.324219-9.578125-5.984376-1.78125-3.660156-1.332031-8.019531 1.164063-11.242187l74.664062-96c3.617188-4.652344 10.324219-5.515625 14.964844-1.867187 4.652344 3.617187 5.496094 10.316406 1.878906 14.964843l-61.292969 78.796875h17.195313l93.109375-72.417968c4.671875-3.636719 11.359375-2.773438 14.964843 1.867187 3.628907 4.660156 2.785157 11.347656-1.863281 14.964844l-96 74.667969c-1.867187 1.460937-4.171875 2.25-6.539062 2.25zm0 0"/><path d="m298.65625 245.667969c-2.28125 0-4.597656-.734375-6.539062-2.238281l-93.109376-72.425782h-17.675781l19.203125 25.597656c3.539063 4.714844 2.578125 11.402344-2.136718 14.933594-4.714844 3.554688-11.402344 2.582032-14.933594-2.132812l-32-42.667969c-2.429688-3.230469-2.8125-7.550781-1.011719-11.167969 1.804687-3.613281 5.503906-5.898437 9.546875-5.898437h42.667969c2.367187 0 4.671875.789062 6.546875 2.242187l96 74.664063c4.652344 3.617187 5.496094 10.328125 1.867187 14.96875-2.101562 2.707031-5.246093 4.125-8.425781 4.125zm0 0"/><path d="m42.667969 405.667969h21.332031v21.335937h-21.332031zm0 0"/><path d="m426.667969 405.667969h21.332031v21.335937h-21.332031zm0 0"/><path d="m42.667969 107.003906h21.332031v21.332032h-21.332031zm0 0"/><path d="m426.667969 107.003906h21.332031v21.332032h-21.332031zm0 0"/><path d="m394.667969 427.003906h-298.667969c-5.886719 0-10.667969-4.769531-10.667969-10.667968 0-5.898438 4.78125-10.667969 10.667969-10.667969h298.667969c5.898437 0 10.664062 4.769531 10.664062 10.667969 0 5.898437-4.765625 10.667968-10.664062 10.667968zm0 0"/><path d="m394.667969 128.335938h-298.667969c-5.886719 0-10.667969-4.777344-10.667969-10.667969 0-5.886719 4.78125-10.664063 10.667969-10.664063h298.667969c5.898437 0 10.664062 4.777344 10.664062 10.664063 0 5.890625-4.765625 10.667969-10.664062 10.667969zm0 0"/><path d="m480 224.335938c-5.898438 0-10.667969-4.777344-10.667969-10.667969v-96c0-17.640625-14.355469-32-32-32h-384c-17.640625 0-32 14.359375-32 32v32c0 5.890625-4.777343 10.667969-10.664062 10.667969-5.890625 0-10.667969-4.777344-10.667969-10.667969v-32c0-29.40625 23.925781-53.332031 53.332031-53.332031h384c29.410157 0 53.335938 23.925781 53.335938 53.332031v96c0 5.890625-4.769531 10.667969-10.667969 10.667969zm0 0"/><path d="m437.332031 469.667969h-384c-29.40625 0-53.332031-23.925781-53.332031-53.332031v-149.332032c0-5.898437 4.777344-10.667968 10.667969-10.667968 5.886719 0 10.664062 4.769531 10.664062 10.667968v149.332032c0 17.644531 14.359375 32 32 32h384c17.644531 0 32-14.355469 32-32v-96c0-5.898438 4.769531-10.667969 10.667969-10.667969s10.667969 4.769531 10.667969 10.667969v96c0 29.40625-23.925781 53.332031-53.335938 53.332031zm0 0"/><path d="m341.332031 85.667969c-5.898437 0-10.664062-4.777344-10.664062-10.664063v-42.667968c0-5.878907-4.78125-10.667969-10.667969-10.667969h-128c-5.878906 0-10.667969 4.789062-10.667969 10.667969 0 5.886718-4.777343 10.667968-10.664062 10.667968-5.890625 0-10.667969-4.78125-10.667969-10.667968 0-17.644532 14.355469-32 32-32h128c17.644531 0 32 14.355468 32 32v42.667968c0 5.886719-4.769531 10.664063-10.667969 10.664063zm0 0"/></svg>